<?xml version="1.0" encoding="iso-8859-1"?>
<!-- Generator: Adobe Illustrator 19.0.0, SVG Export Plug-In . SVG Version: 6.00 Build 0)  -->
<svg version="1.1" id="Layer_1" xmlns="http://www.w3.org/2000/svg" xmlns:xlink="http://www.w3.org/1999/xlink" x="0px" y="0px"
	 viewBox="0 0 512 512" style="enable-background:new 0 0 512 512;" xml:space="preserve">
<path style="fill:#E6AF78;" d="M335.448,347.948v-47.81H176.552v47.81c0,8.193-5.636,15.309-13.611,17.186L53.706,390.837
	c-15.95,3.752-27.223,17.985-27.223,34.37v69.138c0,9.751,7.904,17.655,17.655,17.655h423.724c9.751,0,17.655-7.904,17.655-17.655
	v-69.138c0-16.386-11.273-30.618-27.223-34.371l-109.235-25.703C341.085,363.257,335.448,356.141,335.448,347.948z"/>
<path style="fill:#5B5D6E;" d="M458.294,390.836l-87.588-20.609l-8.775-8.296l-17.458,1.356L256,414.897l-85.023-54.105
	l-20.908,1.14l-0.001,6.231l-96.362,22.674c-15.95,3.753-27.223,17.985-27.223,34.371v69.138c0,9.751,7.904,17.655,17.655,17.655
	h423.724c9.751,0,17.655-7.904,17.655-17.655v-69.138C485.517,408.822,474.244,394.589,458.294,390.836z"/>
<polygon style="fill:#D7DEED;" points="150.069,361.931 203.034,512 308.966,512 361.931,361.931 256,414.897 "/>
<polygon style="fill:#5B5D6E;" points="278.069,512 233.931,512 241.288,432.552 270.712,432.552 "/>
<path style="fill:#D29B6E;" d="M176.552,347.948c0,5.927-2.975,11.257-7.625,14.482c104.728,52.467,166.521-51.283,166.521-51.283
	v-11.009H176.552V347.948z"/>
<path style="fill:#F0C087;" d="M141.241,97.103l7.692,169.237c0.718,15.81,8.47,30.472,21.131,39.967l36.501,27.375
	c9.169,6.876,20.319,10.593,31.779,10.593h35.31c11.46,0,22.611-3.717,31.779-10.593l36.5-27.375
	c12.661-9.496,20.413-24.157,21.131-39.967l7.693-169.237H141.241z"/>
<path style="fill:#E6AF78;" d="M141.241,97.103l7.692,169.236c0.718,15.811,8.47,30.472,21.132,39.968l36.5,27.375
	c9.169,6.877,20.319,10.593,31.779,10.593H256c-26.483-8.828-44.138-79.448-44.138-79.448v-96.345
	c0-6.637,5.062-12.093,11.668-12.733c49.448-4.79,105.321-17.207,147.229-46.508V97.103H141.241z"/>
<path style="fill:#7D7878;" d="M123.586,88.276v8.828l8.828,97.103h17.655l17.655-52.966c0,0,114.759,0,176.552-35.31l17.655,88.276
	h17.655l8.828-97.103v-8.828C388.414,39.522,348.892,0,300.138,0h-88.276C163.108,0,123.586,39.522,123.586,88.276z"/>
<path style="fill:#F0C087;" d="M387.859,208.084l-9.97,39.876c-1.181,4.725-5.426,8.039-10.296,8.039l0,0
	c-5.353,0-9.867-3.986-10.531-9.297l-5.098-40.785c-1.362-10.905,7.143-20.538,18.133-20.538h0.034
	C382.019,185.379,390.742,196.552,387.859,208.084z"/>
<path style="fill:#E6AF78;" d="M124.141,208.084l9.97,39.876c1.181,4.725,5.426,8.039,10.296,8.039l0,0
	c5.353,0,9.867-3.986,10.531-9.297l5.098-40.785c1.362-10.905-7.143-20.538-18.133-20.538h-0.034
	C129.981,185.379,121.258,196.552,124.141,208.084z"/>
<g>
	<path style="fill:#515262;" d="M91.289,454.709l-57.203-51.384c-4.793,6.069-7.604,13.707-7.604,21.884v69.137
		c0,9.751,7.904,17.655,17.655,17.655h61.793v-24.456C105.931,475.017,100.608,463.081,91.289,454.709z"/>
	<path style="fill:#515262;" d="M420.711,454.709l57.203-51.384c4.793,6.069,7.604,13.707,7.604,21.884v69.137
		c0,9.751-7.904,17.655-17.655,17.655h-61.793v-24.456C406.069,475.017,411.392,463.081,420.711,454.709z"/>
</g>
<path style="fill:#65687A;" d="M269.241,414.897h-26.483c-4.875,0-8.828,3.953-8.828,8.828v17.655c0,4.875,3.953,8.828,8.828,8.828
	h26.483c4.875,0,8.828-3.953,8.828-8.828v-17.655C278.069,418.849,274.116,414.897,269.241,414.897z"/>
<g>
	<path style="fill:#E4EAF6;" d="M175.311,342.277L256,414.897c0,0-22.598,11.407-50.483,34.4
		c-5.752,4.743-14.454,2.822-17.539-3.966l-37.909-83.4l11.992-17.988C165.047,339.464,171.311,338.677,175.311,342.277z"/>
	<path style="fill:#E4EAF6;" d="M336.689,342.277L256,414.897c0,0,22.598,11.407,50.483,34.4c5.752,4.743,14.454,2.822,17.539-3.966
		l37.909-83.4l-11.992-17.988C346.953,339.464,340.689,338.677,336.689,342.277z"/>
</g>
<g>
	<path style="fill:#65687A;" d="M203.034,512l-52.966-150.069l-21.306,7.102c-3.172,1.057-5.474,3.816-5.948,7.126l-7.317,51.218
		c-0.456,3.191,0.864,6.377,3.443,8.31l24.448,18.336c3.748,2.812,4.648,8.061,2.048,11.959l-9.759,14.638
		c-1.976,2.965-1.976,6.828,0,9.793L150.069,512H203.034z"/>
	<path style="fill:#65687A;" d="M308.966,512l52.966-150.069l21.306,7.102c3.172,1.057,5.474,3.816,5.948,7.126l7.317,51.218
		c0.456,3.191-0.864,6.377-3.443,8.31l-24.448,18.336c-3.748,2.812-4.648,8.061-2.048,11.959l9.759,14.638
		c1.976,2.965,1.976,6.828,0,9.793L361.931,512H308.966z"/>
</g>
<path style="fill:#515262;" d="M361.931,176.552h-88.276c-4.875,0-8.828,3.953-8.828,8.828h-17.655c0-4.875-3.953-8.828-8.828-8.828
	h-88.276c-4.875,0-8.828,3.953-8.828,8.828c0,4.875,3.953,8.828,8.828,8.828h11.35l4.14,28.98
	c1.242,8.697,8.692,15.158,17.478,15.158h41.525c8.102,0,15.162-5.514,17.128-13.373l3.342-13.372
	c1.258-5.034,5.782-8.565,10.97-8.564l0,0c5.187,0.001,9.708,3.531,10.966,8.564l3.343,13.373
	c1.965,7.859,9.026,13.373,17.128,13.373h41.524c8.786,0,16.235-6.461,17.478-15.158l4.14-28.981h11.35
	c4.875,0,8.828-3.953,8.828-8.828C370.759,180.504,366.806,176.552,361.931,176.552z"/>
<g>
</g>
<g>
</g>
<g>
</g>
<g>
</g>
<g>
</g>
<g>
</g>
<g>
</g>
<g>
</g>
<g>
</g>
<g>
</g>
<g>
</g>
<g>
</g>
<g>
</g>
<g>
</g>
<g>
</g>
</svg>
